<?xml version="1.0" encoding="utf-8"?>
<svg version="1.1" id="Layer_1" xmlns="http://www.w3.org/2000/svg" xmlns:xlink="http://www.w3.org/1999/xlink" x="0px" y="0px"
	 viewBox="0 0 999 142" style="enable-background:new 0 0 999 142;" xml:space="preserve">
	<path d="M999,65.9c0-33.3-0.5-65.2-1.3-63.9c1.7-2.8-85.4-2.8-83.7,0c-0.8-1.3-1.2,30.6-1.3,63.9h-17.1c0,36,0.4,73.5,1.3,72.1
		c-1.7,2.8,85.4,2.8,83.7,0c0.9,1.4,1.3-36.1,1.3-72.1H999z"/>
	<path d="M464.6,2.1c1.7-2.8-85.4-2.8-83.7,0c-0.8-1.3-1.2,30.6-1.3,63.9h-17.1c0,36,0.4,73.5,1.3,72.1c-1.7,2.8,85.4,2.8,83.7,0
		c0.9,1.4,1.3-36.1,1.3-72.1h17.1C465.8,32.7,465.4,0.7,464.6,2.1z"/>
	<path d="M149.8,54c3-0.9,3-54.7,0-51.9c3-2.8-150.5-2.8-147.5,0c-3-2.8-3,51.3,0,51.9c4.5,0.8,28.4-0.1,31.8,0
		c-0.4-0.2-0.7,4.6-0.9,11.9H16.1c-0.7,23.7-0.4,74.2,0.9,72.1c-1.7,2.8,85.4,2.8,83.7,0c1.3,2.1,1.6-48.4,0.9-72.1h17.1
		c-0.2-7.3-0.5-12.1-0.9-11.9C119.5,54.8,146.9,54.8,149.8,54z"/>
	<path d="M623.1,54.9c3-0.9,3-54.7,0-51.9c3-2.8-150.5-2.8-147.5,0c-3-2.8-3,51.3,0,51.9c4.5,0.8,28.4-0.1,31.8,0
		c-0.4-0.1-0.7,4.2-0.9,11.1h-17.1c-0.7,23.3-0.4,75.1,0.9,72.9c-1.7,2.8,85.4,2.8,83.7,0c1.3,2.1,1.6-49.6,0.9-72.9H592
		c-0.2-6.8-0.5-11.2-0.9-11.1C592.8,55.6,620.2,55.6,623.1,54.9z"/>
	<path d="M354.3,86.1c-2.4-0.4-30.6-0.4-32,0c0.4,0.1,0.7-8.4,0.8-20.2h17.1c0.3-25.5-0.1-65.8-0.8-63.9c1.1-2.8-86.1-2.8-83.7,0
		c-1.1-1.3-1.7,30.6-1.8,63.9h-9.3c0-33.3-0.5-65.2-1.3-63.9c1.7-2.8-85.4-2.8-83.7,0c-0.8-1.3-1.2,30.6-1.3,63.9h-17.1
		c0,36,0.4,73.5,1.3,72.1c-1.7,2.8,85.4,2.8,83.7,0c0.9,1.4,1.3-36.1,1.3-72.1h9.3c0,36,0.5,73.5,1.8,72.1
		c-2.4,2.8,118.1,2.8,115.7,0C356.7,140.8,356.7,86.8,354.3,86.1z"/>
	<path d="M887.4,86.1c-2.4-0.4-30.6-0.4-32,0c0.4,0.1,0.7-8.4,0.8-20.2h17.1c0.3-25.5-0.1-65.8-0.8-63.9c1.1-2.8-86.1-2.8-83.7,0
		c-1.1-1.3-1.7,30.6-1.8,63.9h-8.7c-0.3-10.4-1-20.9-2.1-29.5C773.5,14.6,756,5.1,739.4,2.9c-16.7-2.2-57.7-2.1-69.3,0
		c-11.6,2.1-33.7,5.6-37.6,33.5c-1.4,10.2-2,20.2-2,29.5h-17.1c0,16.3,1.5,30.8,2.7,41.2c1.9,16.3,10.9,32.5,36.9,33.5
		c26,1,42.4,2.4,69.3,0c26.9-2.4,35.5-18.1,37.6-33.5c1.3-9.3,1.8-25.2,1.4-41.2h8.7c0,36,0.5,73.5,1.8,72.1
		c-2.4,2.8,118.1,2.8,115.7,0C889.8,140.8,889.8,86.8,887.4,86.1z"/>
</svg>
